<?xml version="1.0" standalone="no"?>
<!DOCTYPE svg PUBLIC "-//W3C//DTD SVG 20010904//EN"
 "http://www.w3.org/TR/2001/REC-SVG-20010904/DTD/svg10.dtd">
<svg version="1.0" xmlns="http://www.w3.org/2000/svg"
 width="45.000000pt" height="45.000000pt" viewBox="0 0 512.000000 512.000000"
 preserveAspectRatio="xMidYMid meet">

<g transform="translate(0.000000,512.000000) scale(0.100000,-0.100000)"
fill="#000000" stroke="none">
<path d="M3005 5105 c-243 -38 -432 -128 -583 -277 -49 -49 -114 -127 -137
-166 -1 -1 -31 11 -66 27 -36 16 -92 36 -124 45 -87 24 -249 31 -342 16 -265
-42 -536 -246 -663 -499 -44 -88 -95 -247 -119 -373 -11 -58 -38 -241 -61
-406 -41 -308 -72 -476 -116 -630 -34 -120 -150 -349 -301 -592 -69 -113 -142
-241 -161 -285 -49 -114 -82 -254 -88 -370 -3 -55 -12 -131 -20 -168 -83 -390
18 -773 279 -1053 169 -181 368 -294 618 -350 94 -21 358 -25 444 -6 196 43
289 85 499 221 520 338 638 382 1281 481 382 58 544 97 707 169 139 60 311
207 393 335 56 87 112 213 131 292 11 46 17 110 17 189 -1 139 -23 239 -77
346 l-33 67 26 15 c46 27 158 136 207 200 65 86 140 246 169 363 125 490 -53
994 -450 1277 l-50 35 -17 99 c-31 182 -100 358 -199 506 -68 101 -250 273
-353 334 -243 143 -540 201 -811 158z m447 -163 c299 -81 518 -251 656 -512
44 -82 96 -221 106 -286 l7 -42 -98 34 c-261 89 -573 87 -795 -6 -86 -35 -187
-96 -235 -142 l-31 -30 -49 40 c-251 209 -572 253 -889 121 -160 -67 -313
-194 -421 -350 -80 -117 -151 -259 -287 -577 -162 -376 -235 -519 -336 -657
-59 -80 -212 -240 -365 -381 -77 -71 -164 -153 -194 -182 l-53 -54 39 74 c22
40 82 141 134 223 116 186 247 443 282 555 15 47 38 135 52 195 23 101 38 197
110 715 40 289 92 455 187 595 90 136 242 251 406 308 78 27 99 31 207 31 107
0 129 -4 205 -30 47 -17 111 -47 141 -67 89 -59 116 -49 175 63 38 71 171 205
254 254 88 52 197 94 300 117 118 26 379 21 492 -9z m421 -897 c288 -43 555
-201 713 -421 219 -305 255 -756 87 -1089 -65 -127 -184 -255 -286 -306 -92
-47 -99 -79 -36 -175 22 -35 53 -96 67 -136 25 -67 27 -85 26 -218 0 -165 -13
-212 -95 -356 -129 -225 -334 -354 -676 -423 -54 -11 -204 -36 -333 -56 -642
-96 -799 -151 -1232 -428 -330 -212 -383 -237 -559 -273 -124 -25 -354 -16
-469 19 -116 35 -190 69 -285 132 -81 53 -204 159 -195 168 3 2 310 242 684
531 l679 527 76 17 c53 11 128 16 251 16 189 0 286 -15 445 -69 41 -14 87 -25
100 -25 56 0 86 79 45 120 -21 21 -174 71 -294 95 -93 19 -282 34 -346 27 -30
-3 -42 -1 -35 6 6 5 296 231 645 501 349 271 645 503 658 517 27 31 28 64 2
92 -46 49 -59 42 -419 -238 -184 -143 -335 -260 -336 -260 -1 0 9 37 22 83 47
163 58 248 58 474 0 199 -1 213 -21 240 -26 35 -71 42 -104 15 -22 -18 -24
-24 -19 -103 7 -143 1 -308 -16 -417 -20 -128 -82 -323 -133 -417 l-37 -70
-513 -398 c-283 -219 -516 -396 -519 -394 -2 3 1 22 7 44 18 59 24 372 8 403
-19 34 -55 51 -86 39 -46 -18 -52 -36 -46 -139 10 -153 -17 -311 -77 -456
l-31 -74 -364 -283 c-200 -155 -368 -283 -374 -285 -15 -5 -117 216 -142 308
-19 72 -22 110 -22 250 0 180 13 252 72 395 68 163 136 251 345 443 182 169
308 296 389 392 117 141 234 360 399 746 181 427 249 545 389 686 76 75 101
93 191 136 236 114 441 120 648 20 66 -31 103 -58 165 -119 106 -104 111 -105
208 -14 186 176 431 244 721 200z"/>
</g>
</svg>
